<svg xmlns="http://www.w3.org/2000/svg" width="16" height="16" viewBox="0 0 16 16">
  <path fill="currentColor" d="M.54 3.87L.5 3a2 2 0 0 1 2-2h3.672a2 2 0 0 1 1.414.586l.828.828A2 2 0 0 0 9.828 3H13.5a2 2 0 0 1 2 2v.5a.5.5 0 0 1-1 0V5a1 1 0 0 0-1-1H9.828a3 3 0 0 1-2.12-.879l-.83-.828A1 1 0 0 0 6.173 2H2.5a1 1 0 0 0-1 1v.5a.5.5 0 0 1-1 0z"/>
  <path fill="currentColor" d="M13.5 6a.5.5 0 0 1 .5.5V13a2 2 0 0 1-2 2H4a2 2 0 0 1-2-2V6.5a.5.5 0 0 1 1 0V13a1 1 0 0 0 1 1h8a1 1 0 0 0 1-1V6.5a.5.5 0 0 1 .5-.5z"/>
</svg>
